<?xml version="1.0" encoding="UTF-8" standalone="no"?>
<!DOCTYPE svg PUBLIC "-//W3C//DTD SVG 1.1//EN" "http://www.w3.org/Graphics/SVG/1.1/DTD/svg11.dtd">
<svg width="100%" height="100%" viewBox="0 0 1425 332" version="1.1" xmlns="http://www.w3.org/2000/svg" xmlns:xlink="http://www.w3.org/1999/xlink" xml:space="preserve" xmlns:serif="http://www.serif.com/" style="fill-rule:evenodd;clip-rule:evenodd;stroke-linejoin:round;stroke-miterlimit:2;">
    <g transform="matrix(24.4855,0,0,24.4855,-4667.51,-4690.09)">
        <path d="M195.734,202.045C195.03,202.045 194.514,201.895 194.186,201.595C193.858,201.295 193.694,200.805 193.694,200.125L193.694,197.965C193.694,197.277 193.842,196.785 194.138,196.489C194.434,196.193 194.926,196.045 195.614,196.045L196.178,196.045C196.746,196.045 197.176,196.203 197.468,196.519C197.76,196.835 197.906,197.297 197.906,197.905L197.906,199.465L194.714,199.465L194.714,200.365C194.714,200.613 194.79,200.805 194.942,200.941C195.094,201.077 195.318,201.145 195.614,201.145L197.522,201.145L197.522,202.045L195.734,202.045ZM196.91,197.665C196.91,197.457 196.842,197.285 196.706,197.149C196.57,197.013 196.398,196.945 196.19,196.945L195.494,196.945C195.206,196.945 195.004,197.011 194.888,197.143C194.772,197.275 194.714,197.469 194.714,197.725L194.714,198.565L196.91,198.565L196.91,197.665Z" style="fill:white;fill-rule:nonzero;"/>
        <path d="M202.91,200.545C202.91,201.049 202.756,201.425 202.448,201.673C202.14,201.921 201.694,202.045 201.11,202.045L199.322,202.045L199.322,201.145L201.23,201.145C201.446,201.145 201.61,201.099 201.722,201.007C201.834,200.915 201.89,200.781 201.89,200.605L201.89,199.969C201.89,199.609 201.718,199.429 201.374,199.429L200.93,199.429C200.37,199.429 199.952,199.307 199.676,199.063C199.4,198.819 199.262,198.433 199.262,197.905L199.262,197.557C199.262,197.021 199.414,196.635 199.718,196.399C200.022,196.163 200.47,196.045 201.062,196.045L202.67,196.045L202.67,196.945L200.942,196.945C200.742,196.945 200.582,196.991 200.462,197.083C200.342,197.175 200.282,197.309 200.282,197.485L200.282,197.917C200.282,198.101 200.336,198.237 200.444,198.325C200.552,198.413 200.69,198.457 200.858,198.457L201.266,198.457C201.802,198.457 202.21,198.587 202.49,198.847C202.77,199.107 202.91,199.493 202.91,200.005L202.91,200.545Z" style="fill:white;fill-rule:nonzero;"/>
        <path d="M206.81,202.045C206.402,202.045 206.09,201.913 205.874,201.649C205.658,201.385 205.55,201.037 205.55,200.605L205.55,196.945L204.41,196.945L204.41,196.045L205.55,196.045L205.55,194.605L206.57,194.605L206.57,196.045L208.322,196.045L208.322,196.945L206.57,196.945L206.57,200.665C206.57,200.841 206.614,200.965 206.702,201.037C206.79,201.109 206.926,201.145 207.11,201.145L208.322,201.145L208.322,202.045L206.81,202.045Z" style="fill:white;fill-rule:nonzero;"/>
        <path d="M210.482,201.145L210.482,196.945L209.606,196.945L209.606,196.045L211.442,196.045L211.442,196.369C211.706,196.153 212.026,196.045 212.402,196.045L213.638,196.045L213.638,197.005L212.282,197.005C212.026,197.005 211.834,197.087 211.706,197.251C211.578,197.415 211.51,197.581 211.502,197.749L211.502,201.145L212.81,201.145L212.81,202.045L209.606,202.045L209.606,201.145L210.482,201.145Z" style="fill:white;fill-rule:nonzero;"/>
        <path d="M218.09,201.769C217.826,201.953 217.506,202.045 217.13,202.045L216.722,202.045C216.074,202.045 215.592,201.893 215.276,201.589C214.96,201.285 214.802,200.797 214.802,200.125L214.802,196.045L215.822,196.045L215.822,200.365C215.822,200.605 215.892,200.795 216.032,200.935C216.172,201.075 216.362,201.145 216.602,201.145L217.25,201.145C217.506,201.145 217.696,201.081 217.82,200.953C217.944,200.825 218.014,200.681 218.03,200.521L218.03,196.045L219.05,196.045L219.05,202.045L218.09,202.045L218.09,201.769Z" style="fill:white;fill-rule:nonzero;"/>
        <path d="M222.65,202.045C222.242,202.045 221.93,201.913 221.714,201.649C221.498,201.385 221.39,201.037 221.39,200.605L221.39,196.945L220.25,196.945L220.25,196.045L221.39,196.045L221.39,194.605L222.41,194.605L222.41,196.045L224.162,196.045L224.162,196.945L222.41,196.945L222.41,200.665C222.41,200.841 222.454,200.965 222.542,201.037C222.63,201.109 222.766,201.145 222.95,201.145L224.162,201.145L224.162,202.045L222.65,202.045Z" style="fill:rgb(58,173,95);fill-rule:nonzero;"/>
        <path d="M227.93,202.045C227.522,202.045 227.21,201.913 226.994,201.649C226.778,201.385 226.67,201.037 226.67,200.605L226.67,196.945L225.53,196.945L225.53,196.045L226.67,196.045L226.67,194.605L227.69,194.605L227.69,196.045L229.442,196.045L229.442,196.945L227.69,196.945L227.69,200.665C227.69,200.841 227.734,200.965 227.822,201.037C227.91,201.109 228.046,201.145 228.23,201.145L229.442,201.145L229.442,202.045L227.93,202.045Z" style="fill:rgb(58,173,95);fill-rule:nonzero;"/>
        <path d="M233.93,201.769C233.666,201.953 233.346,202.045 232.97,202.045L232.562,202.045C231.914,202.045 231.432,201.893 231.116,201.589C230.8,201.285 230.642,200.797 230.642,200.125L230.642,196.045L231.662,196.045L231.662,200.365C231.662,200.605 231.732,200.795 231.872,200.935C232.012,201.075 232.202,201.145 232.442,201.145L233.09,201.145C233.346,201.145 233.536,201.081 233.66,200.953C233.784,200.825 233.854,200.681 233.87,200.521L233.87,196.045L234.89,196.045L234.89,202.045L233.93,202.045L233.93,201.769Z" style="fill:white;fill-rule:nonzero;"/>
        <path d="M236.882,201.145L236.882,196.945L236.006,196.945L236.006,196.045L237.842,196.045L237.842,196.369C238.106,196.153 238.426,196.045 238.802,196.045L240.038,196.045L240.038,197.005L238.682,197.005C238.426,197.005 238.234,197.087 238.106,197.251C237.978,197.415 237.91,197.581 237.902,197.749L237.902,201.145L239.21,201.145L239.21,202.045L236.006,202.045L236.006,201.145L236.882,201.145Z" style="fill:white;fill-rule:nonzero;"/>
        <path d="M245.09,202.045C244.986,202.045 244.872,202.013 244.748,201.949C244.624,201.885 244.518,201.797 244.43,201.685C244.246,201.925 244.002,202.045 243.698,202.045L242.63,202.045C242.022,202.045 241.58,201.923 241.304,201.679C241.028,201.435 240.89,201.017 240.89,200.425L240.89,200.185C240.89,198.945 241.474,198.325 242.642,198.325L244.13,198.325L244.13,197.725C244.13,197.477 244.054,197.285 243.902,197.149C243.75,197.013 243.526,196.945 243.23,196.945L241.37,196.945L241.37,196.045L243.11,196.045C243.806,196.045 244.32,196.197 244.652,196.501C244.984,196.805 245.15,197.293 245.15,197.965L245.15,200.845C245.15,200.965 245.196,201.055 245.288,201.115C245.38,201.175 245.534,201.205 245.75,201.205L245.75,202.045L245.09,202.045ZM243.578,201.145C243.818,201.145 243.97,201.089 244.034,200.977C244.098,200.865 244.13,200.721 244.13,200.545L244.13,199.225L242.63,199.225C242.422,199.225 242.25,199.293 242.114,199.429C241.978,199.565 241.91,199.737 241.91,199.945L241.91,200.545C241.91,200.753 241.958,200.905 242.054,201.001C242.15,201.097 242.302,201.145 242.51,201.145L243.578,201.145Z" style="fill:white;fill-rule:nonzero;"/>
    </g>
    <g transform="matrix(1.38977,0,0,1.00075,0.937913,-34.0255)">
        <path d="M1024,100.474C1024,63.854 1002.59,34.124 976.222,34.124L47.778,34.124C21.408,34.124 0,63.854 0,100.474L0,365.876L976.222,365.876C1002.59,365.876 1024,336.146 1024,299.526L1024,100.474ZM1011.05,100.474L1011.05,299.526C1011.05,326.218 995.443,347.89 976.222,347.89L12.952,347.89C12.952,347.89 12.952,100.474 12.952,100.474C12.952,73.782 28.557,52.11 47.778,52.11L976.222,52.11C995.443,52.11 1011.05,73.782 1011.05,100.474Z" style="fill:rgb(58,173,96);"/>
    </g>
</svg>
